<?xml version="1.0" encoding="utf-8"?>
<!-- Generator: Adobe Illustrator 27.5.0, SVG Export Plug-In . SVG Version: 6.00 Build 0)  -->
<svg version="1.1" xmlns="http://www.w3.org/2000/svg" xmlns:xlink="http://www.w3.org/1999/xlink" x="0px" y="0px"
	 viewBox="0 0 2200 2200" style="enable-background:new 0 0 2200 2200;" xml:space="preserve">
<g id="background">
	<rect style="fill:#FFFFFF;" width="2200" height="2200"/>
</g>
<g id="Objects">
	<g>
		<polygon style="fill:#EA3939;" points="2019.86,1149.529 1864.93,1286.376 1955.91,1472.025 1760.26,1538.896 1773.106,1745.246 
			1566.756,1732.4 1499.885,1928.05 1314.237,1837.069 1177.39,1992 1040.543,1837.069 854.895,1928.05 788.023,1732.4 
			581.673,1745.246 594.519,1538.896 398.869,1472.025 489.85,1286.376 334.919,1149.529 489.85,1012.683 398.869,827.034 
			594.519,760.162 581.673,553.812 788.023,566.659 854.895,371.009 1040.543,461.99 1177.39,307.059 1314.236,461.99 
			1499.885,371.009 1566.757,566.659 1773.107,553.813 1760.261,760.163 1955.91,827.034 1864.93,1012.682 		"/>
		<path style="fill:#3A2E2E;" d="M1097.61,1962.216c-6.1,0-11.907-2.618-15.945-7.19l-126.106-142.771l-171.081,83.841
			c-5.486,2.688-11.863,2.89-17.508,0.55c-5.644-2.339-10.01-6.991-11.985-12.772l-61.622-180.289l-190.146,11.837
			c-6.104,0.375-12.051-1.876-16.366-6.19c-4.314-4.314-6.568-10.274-6.189-16.365l11.837-190.146l-180.288-61.621
			c-5.781-1.976-10.434-6.342-12.773-11.985c-2.339-5.645-2.139-12.021,0.55-17.508l83.841-171.081l-142.771-126.106
			c-4.572-4.038-7.19-9.846-7.19-15.945c0-6.1,2.619-11.907,7.19-15.945l142.771-126.107l-83.841-171.081
			c-2.689-5.486-2.889-11.863-0.55-17.507c2.339-5.644,6.992-10.01,12.772-11.986l180.289-61.621L480.66,504.076
			c-0.379-6.091,1.875-12.051,6.189-16.366c4.315-4.315,10.278-6.575,16.366-6.19l190.147,11.837l61.621-180.288
			c1.976-5.781,6.342-10.434,11.985-12.773c5.646-2.339,12.02-2.139,17.508,0.55l171.081,83.841l126.106-142.771
			c4.038-4.572,9.846-7.19,15.945-7.19s11.907,2.619,15.945,7.19l126.106,142.771l171.081-83.841
			c5.486-2.689,11.863-2.889,17.508-0.55c5.644,2.339,10.01,6.992,11.985,12.772l61.622,180.289l190.146-11.837
			c6.106-0.377,12.051,1.875,16.366,6.19c4.314,4.315,6.568,10.275,6.189,16.365l-11.837,190.147l180.288,61.621
			c5.781,1.976,10.434,6.342,12.772,11.986s2.139,12.021-0.55,17.507l-83.841,171.08l142.771,126.108
			c4.572,4.038,7.19,9.845,7.19,15.945c0,6.101-2.618,11.907-7.19,15.945l-142.771,126.106l83.841,171.081
			c2.688,5.486,2.889,11.863,0.55,17.508c-2.339,5.644-6.991,10.01-12.772,11.985l-180.289,61.622l11.837,190.146
			c0.379,6.091-1.875,12.051-6.19,16.366c-4.313,4.314-10.275,6.568-16.365,6.189l-190.146-11.837l-61.621,180.288
			c-1.976,5.781-6.342,10.434-11.985,12.772c-5.645,2.338-12.021,2.139-17.508-0.55l-171.081-83.841l-126.106,142.771
			C1109.518,1959.598,1103.71,1962.216,1097.61,1962.216z M960.756,1764.735c5.959,0,11.812,2.503,15.953,7.191l120.901,136.879
			l120.901-136.879c6.343-7.182,16.703-9.235,25.308-5.02l163.965,80.354l59.062-172.8c3.101-9.07,11.861-14.93,21.453-14.353
			l182.297,11.349l-11.349-182.298c-0.596-9.567,5.281-18.352,14.353-21.452l172.801-59.063l-80.354-163.965
			c-4.217-8.604-2.161-18.965,5.02-25.308l136.879-120.901l-136.879-120.902c-7.181-6.343-9.236-16.704-5.02-25.307l80.354-163.964
			l-172.8-59.062c-9.071-3.101-14.948-11.885-14.353-21.453l11.349-182.297l-182.298,11.348
			c-9.549,0.605-18.352-5.281-21.452-14.353l-59.063-172.8l-163.965,80.354c-8.604,4.217-18.965,2.162-25.308-5.02L1097.61,288.136
			L976.709,425.015c-6.342,7.181-16.702,9.236-25.308,5.02L787.437,349.68l-59.062,172.8c-3.1,9.071-11.859,14.958-21.453,14.353
			l-182.298-11.349l11.35,182.297c0.596,9.568-5.281,18.353-14.353,21.454L348.82,788.297l80.354,163.965
			c4.217,8.604,2.162,18.964-5.02,25.308l-136.879,120.901l136.879,120.901c7.181,6.343,9.236,16.704,5.02,25.308l-80.354,163.965
			l172.8,59.062c9.071,3.101,14.948,11.885,14.353,21.453l-11.349,182.297l182.298-11.349c9.55-0.589,18.352,5.28,21.452,14.353
			l59.063,172.801l163.965-80.354C954.388,1765.443,957.588,1764.735,960.756,1764.735z"/>
		<g>
			<path style="fill:#FFFFFF;" d="M808.653,1099.784c-9.924-7.82-24.633-14.066-44.127-18.737l-44.477-10.682
				c-17.16-4.085-28.366-7.644-33.62-10.681c-8.172-4.553-12.258-11.44-12.258-20.662c0-10.039,4.143-17.861,12.433-23.464
				c8.288-5.604,19.376-8.405,33.27-8.405c12.489,0,22.938,2.161,31.344,6.479c12.608,6.539,19.377,17.571,20.311,33.095h51.833
				c-0.936-27.431-11.004-48.357-30.206-62.776c-19.205-14.417-42.406-21.626-69.604-21.626c-32.571,0-57.261,7.648-74.071,22.94
				c-16.809,15.294-25.215,34.496-25.215,57.61c0,25.333,8.696,43.952,26.092,55.859c10.271,7.122,28.832,13.719,55.683,19.787
				l27.317,6.128c15.993,3.502,27.724,7.529,35.196,12.082c7.47,4.67,11.207,11.267,11.207,19.787
				c0,14.594-7.529,24.575-22.589,29.943c-7.94,2.802-18.271,4.203-30.994,4.203c-21.248,0-36.247-5.311-45.003-15.935
				c-4.788-5.836-7.996-14.649-9.63-26.441h-51.481c0,26.851,9.63,47.952,28.892,63.301c19.262,15.352,45.704,23.027,79.324,23.027
				c32.92,0,58.398-7.792,76.434-23.377c18.037-15.584,27.054-35.166,27.054-58.748
				C831.767,1129.495,824.062,1111.927,808.653,1099.784z"/>
			<path style="fill:#FFFFFF;" d="M950.223,969.855l-92.107,258.107H914.5l17.861-53.057h95.083l16.635,53.057h58.486
				l-91.406-258.107H950.223z M946.895,1130.427l33.27-101.562l32.219,101.562H946.895z"/>
			<polygon style="fill:#FFFFFF;" points="1197.819,969.855 1143.886,969.855 1143.886,1227.962 1325.648,1227.962 
				1325.648,1181.559 1197.819,1181.559 			"/>
			<polygon style="fill:#FFFFFF;" points="1432.27,1181.559 1432.27,1115.193 1557.647,1115.193 1557.647,1070.366 
				1432.27,1070.366 1432.27,1015.558 1568.854,1015.558 1568.854,969.855 1379.563,969.855 1379.563,1227.962 1575.157,1227.962 
				1575.157,1181.559 			"/>
		</g>
	</g>
</g>
</svg>
